<svg width="732" height="208" viewBox="0 0 732 208" fill="none" xmlns="http://www.w3.org/2000/svg">
<g filter="url(#filter0_d_3_2)">
<g clip-path="url(#clip0_3_2)">
<rect x="4" width="724" height="200" rx="21" fill="black"/>
<path d="M285.09 118L265.834 74.01H274.134L291.232 113.85H287.248L304.678 74.01H312.48L293.224 118H285.09ZM337.541 118.498C333.115 118.498 329.186 117.53 325.755 115.593C322.325 113.656 319.613 111 317.621 107.625C315.629 104.194 314.633 100.321 314.633 96.005C314.633 91.6337 315.629 87.7603 317.621 84.385C319.613 81.0097 322.325 78.3813 325.755 76.5C329.186 74.5633 333.115 73.595 337.541 73.595C341.913 73.595 345.814 74.5633 349.244 76.5C352.73 78.3813 355.442 81.0097 357.378 84.385C359.37 87.705 360.366 91.5783 360.366 96.005C360.366 100.376 359.37 104.25 357.378 107.625C355.442 111 352.73 113.656 349.244 115.593C345.814 117.53 341.913 118.498 337.541 118.498ZM337.541 111.526C340.363 111.526 342.881 110.89 345.094 109.617C347.363 108.344 349.134 106.546 350.406 104.222C351.679 101.843 352.315 99.1037 352.315 96.005C352.315 92.851 351.679 90.1397 350.406 87.871C349.134 85.547 347.363 83.7487 345.094 82.476C342.881 81.2033 340.363 80.567 337.541 80.567C334.719 80.567 332.202 81.2033 329.988 82.476C327.775 83.7487 326.004 85.547 324.676 87.871C323.348 90.1397 322.684 92.851 322.684 96.005C322.684 99.1037 323.348 101.843 324.676 104.222C326.004 106.546 327.775 108.344 329.988 109.617C332.202 110.89 334.719 111.526 337.541 111.526ZM377.86 107.376L378.026 97.167L403.341 74.01H412.969L393.547 93.1L389.231 96.752L377.86 107.376ZM371.386 118V56.414H379.354V118H371.386ZM405.001 118L387.737 96.586L392.883 90.195L414.795 118H405.001ZM449.028 118V108.704L448.613 106.961V91.108C448.613 87.7327 447.617 85.132 445.625 83.306C443.688 81.4247 440.756 80.484 436.827 80.484C434.226 80.484 431.681 80.9267 429.191 81.812C426.701 82.642 424.598 83.7763 422.883 85.215L419.563 79.239C421.832 77.413 424.543 76.0297 427.697 75.089C430.906 74.093 434.254 73.595 437.74 73.595C443.771 73.595 448.419 75.0613 451.684 77.994C454.949 80.9267 456.581 85.4087 456.581 91.44V118H449.028ZM434.586 118.498C431.321 118.498 428.444 117.945 425.954 116.838C423.519 115.731 421.638 114.21 420.31 112.273C418.982 110.281 418.318 108.04 418.318 105.55C418.318 103.171 418.871 101.013 419.978 99.076C421.14 97.1393 422.994 95.59 425.539 94.428C428.14 93.266 431.626 92.685 435.997 92.685H449.941V98.412H436.329C432.345 98.412 429.661 99.076 428.278 100.404C426.895 101.732 426.203 103.337 426.203 105.218C426.203 107.376 427.061 109.119 428.776 110.447C430.491 111.72 432.871 112.356 435.914 112.356C438.902 112.356 441.503 111.692 443.716 110.364C445.985 109.036 447.617 107.099 448.613 104.554L450.19 110.032C449.139 112.633 447.285 114.708 444.629 116.257C441.973 117.751 438.625 118.498 434.586 118.498ZM494.649 118.498C490.887 118.498 487.484 117.668 484.44 116.008C481.452 114.293 479.073 111.775 477.302 108.455C475.587 105.135 474.729 100.985 474.729 96.005C474.729 91.025 475.615 86.875 477.385 83.555C479.211 80.235 481.618 77.745 484.606 76.085C487.65 74.425 490.997 73.595 494.649 73.595C498.965 73.595 502.783 74.5357 506.103 76.417C509.423 78.2983 512.052 80.9267 513.988 84.302C515.925 87.622 516.893 91.523 516.893 96.005C516.893 100.487 515.925 104.416 513.988 107.791C512.052 111.166 509.423 113.795 506.103 115.676C502.783 117.557 498.965 118.498 494.649 118.498ZM471.326 118V56.414H479.294V85.713L478.464 95.922L478.962 106.131V118H471.326ZM493.985 111.526C496.807 111.526 499.325 110.89 501.538 109.617C503.807 108.344 505.578 106.546 506.85 104.222C508.178 101.843 508.842 99.1037 508.842 96.005C508.842 92.851 508.178 90.1397 506.85 87.871C505.578 85.547 503.807 83.7487 501.538 82.476C499.325 81.2033 496.807 80.567 493.985 80.567C491.219 80.567 488.701 81.2033 486.432 82.476C484.219 83.7487 482.448 85.547 481.12 87.871C479.848 90.1397 479.211 92.851 479.211 96.005C479.211 99.1037 479.848 101.843 481.12 104.222C482.448 106.546 484.219 108.344 486.432 109.617C488.701 110.89 491.219 111.526 493.985 111.526ZM547.491 118.498C542.787 118.498 538.637 117.53 535.041 115.593C531.499 113.656 528.733 111 526.741 107.625C524.804 104.25 523.836 100.376 523.836 96.005C523.836 91.6337 524.776 87.7603 526.658 84.385C528.594 81.0097 531.223 78.3813 534.543 76.5C537.918 74.5633 541.708 73.595 545.914 73.595C550.174 73.595 553.937 74.5357 557.202 76.417C560.466 78.2983 563.012 80.9543 564.838 84.385C566.719 87.7603 567.66 91.7167 567.66 96.254C567.66 96.586 567.632 96.9733 567.577 97.416C567.577 97.8587 567.549 98.2737 567.494 98.661H530.061V92.934H563.344L560.107 94.926C560.162 92.104 559.581 89.5863 558.364 87.373C557.146 85.1597 555.459 83.4443 553.301 82.227C551.198 80.9543 548.736 80.318 545.914 80.318C543.147 80.318 540.685 80.9543 538.527 82.227C536.369 83.4443 534.681 85.1873 533.464 87.456C532.246 89.6693 531.638 92.2147 531.638 95.092V96.42C531.638 99.3527 532.302 101.981 533.63 104.305C535.013 106.574 536.922 108.344 539.357 109.617C541.791 110.89 544.586 111.526 547.74 111.526C550.34 111.526 552.692 111.083 554.795 110.198C556.953 109.313 558.834 107.985 560.439 106.214L564.838 111.36C562.846 113.684 560.356 115.455 557.368 116.672C554.435 117.889 551.143 118.498 547.491 118.498ZM609.517 118.83C608.466 118.83 607.525 118.664 606.695 118.332C605.865 118.055 605.146 117.557 604.537 116.838C603.984 116.063 603.458 114.984 602.96 113.601L596.403 95.092C596.071 94.096 595.684 92.9617 595.241 91.689C594.798 90.361 594.328 89.0053 593.83 87.622C593.387 86.2387 592.972 84.9383 592.585 83.721C592.253 82.5037 591.976 81.4523 591.755 80.567H591.423C591.036 82.559 590.427 84.8553 589.597 87.456C588.822 90.0567 588.075 92.4637 587.356 94.677L579.72 118H571.918L588.186 73.346L586.028 67.785C585.143 65.3503 583.87 63.5243 582.21 62.307C580.605 61.0897 578.475 60.481 575.819 60.481C574.823 60.481 573.938 60.5363 573.163 60.647C572.444 60.7577 571.78 60.8683 571.171 60.979V55.169C571.669 55.003 572.195 54.8923 572.748 54.837C573.357 54.7263 573.993 54.6433 574.657 54.588C575.321 54.5327 576.013 54.505 576.732 54.505C579.609 54.505 582.072 54.9753 584.119 55.916C586.222 56.8567 588.02 58.323 589.514 60.315C591.063 62.307 592.419 64.88 593.581 68.034L609.351 109.949C609.683 110.724 609.96 111.332 610.181 111.775C610.402 112.162 610.651 112.439 610.928 112.605C611.26 112.771 611.62 112.854 612.007 112.854C612.45 112.854 612.865 112.799 613.252 112.688C613.639 112.577 613.971 112.494 614.248 112.439V117.834C613.861 118 613.418 118.166 612.92 118.332C612.422 118.498 611.896 118.609 611.343 118.664C610.79 118.775 610.181 118.83 609.517 118.83Z" fill="white"/>
<path d="M293.14 146L286.98 132H289.14L294.8 144.92H293.56L299.26 132H301.26L295.12 146H293.14ZM306.705 146.12C305.638 146.12 304.691 145.887 303.865 145.42C303.038 144.953 302.385 144.313 301.905 143.5C301.425 142.673 301.185 141.74 301.185 140.7C301.185 139.647 301.425 138.713 301.905 137.9C302.385 137.087 303.038 136.453 303.865 136C304.691 135.533 305.638 135.3 306.705 135.3C307.758 135.3 308.698 135.533 309.525 136C310.365 136.453 311.018 137.087 311.485 137.9C311.965 138.7 312.205 139.633 312.205 140.7C312.205 141.753 311.965 142.687 311.485 143.5C311.018 144.313 310.365 144.953 309.525 145.42C308.698 145.887 307.758 146.12 306.705 146.12ZM306.705 144.44C307.385 144.44 307.991 144.287 308.525 143.98C309.071 143.673 309.498 143.24 309.805 142.68C310.111 142.107 310.265 141.447 310.265 140.7C310.265 139.94 310.111 139.287 309.805 138.74C309.498 138.18 309.071 137.747 308.525 137.44C307.991 137.133 307.385 136.98 306.705 136.98C306.025 136.98 305.418 137.133 304.885 137.44C304.351 137.747 303.925 138.18 303.605 138.74C303.285 139.287 303.125 139.94 303.125 140.7C303.125 141.447 303.285 142.107 303.605 142.68C303.925 143.24 304.351 143.673 304.885 143.98C305.418 144.287 306.025 144.44 306.705 144.44ZM319.68 146.12C318.6 146.12 317.633 145.887 316.78 145.42C315.94 144.953 315.28 144.313 314.8 143.5C314.32 142.687 314.08 141.753 314.08 140.7C314.08 139.647 314.32 138.713 314.8 137.9C315.28 137.087 315.94 136.453 316.78 136C317.633 135.533 318.6 135.3 319.68 135.3C320.64 135.3 321.493 135.493 322.24 135.88C323 136.253 323.587 136.813 324 137.56L322.54 138.5C322.193 137.98 321.767 137.6 321.26 137.36C320.767 137.107 320.233 136.98 319.66 136.98C318.967 136.98 318.347 137.133 317.8 137.44C317.253 137.747 316.82 138.18 316.5 138.74C316.18 139.287 316.02 139.94 316.02 140.7C316.02 141.46 316.18 142.12 316.5 142.68C316.82 143.24 317.253 143.673 317.8 143.98C318.347 144.287 318.967 144.44 319.66 144.44C320.233 144.44 320.767 144.32 321.26 144.08C321.767 143.827 322.193 143.44 322.54 142.92L324 143.84C323.587 144.573 323 145.14 322.24 145.54C321.493 145.927 320.64 146.12 319.68 146.12ZM333.266 146V143.76L333.166 143.34V139.52C333.166 138.707 332.926 138.08 332.446 137.64C331.979 137.187 331.272 136.96 330.326 136.96C329.699 136.96 329.086 137.067 328.486 137.28C327.886 137.48 327.379 137.753 326.966 138.1L326.166 136.66C326.712 136.22 327.366 135.887 328.126 135.66C328.899 135.42 329.706 135.3 330.546 135.3C331.999 135.3 333.119 135.653 333.906 136.36C334.692 137.067 335.086 138.147 335.086 139.6V146H333.266ZM329.786 146.12C328.999 146.12 328.306 145.987 327.706 145.72C327.119 145.453 326.666 145.087 326.346 144.62C326.026 144.14 325.866 143.6 325.866 143C325.866 142.427 325.999 141.907 326.266 141.44C326.546 140.973 326.992 140.6 327.606 140.32C328.232 140.04 329.072 139.9 330.126 139.9H333.486V141.28H330.206C329.246 141.28 328.599 141.44 328.266 141.76C327.932 142.08 327.766 142.467 327.766 142.92C327.766 143.44 327.972 143.86 328.386 144.18C328.799 144.487 329.372 144.64 330.106 144.64C330.826 144.64 331.452 144.48 331.986 144.16C332.532 143.84 332.926 143.373 333.166 142.76L333.546 144.08C333.292 144.707 332.846 145.207 332.206 145.58C331.566 145.94 330.759 146.12 329.786 146.12ZM344.459 146.12C343.552 146.12 342.732 145.92 341.999 145.52C341.279 145.107 340.705 144.5 340.279 143.7C339.865 142.9 339.659 141.9 339.659 140.7C339.659 139.5 339.872 138.5 340.299 137.7C340.739 136.9 341.319 136.3 342.039 135.9C342.772 135.5 343.579 135.3 344.459 135.3C345.499 135.3 346.419 135.527 347.219 135.98C348.019 136.433 348.652 137.067 349.119 137.88C349.585 138.68 349.819 139.62 349.819 140.7C349.819 141.78 349.585 142.727 349.119 143.54C348.652 144.353 348.019 144.987 347.219 145.44C346.419 145.893 345.499 146.12 344.459 146.12ZM338.839 146V131.16H340.759V138.22L340.559 140.68L340.679 143.14V146H338.839ZM344.299 144.44C344.979 144.44 345.585 144.287 346.119 143.98C346.665 143.673 347.092 143.24 347.399 142.68C347.719 142.107 347.879 141.447 347.879 140.7C347.879 139.94 347.719 139.287 347.399 138.74C347.092 138.18 346.665 137.747 346.119 137.44C345.585 137.133 344.979 136.98 344.299 136.98C343.632 136.98 343.025 137.133 342.479 137.44C341.945 137.747 341.519 138.18 341.199 138.74C340.892 139.287 340.739 139.94 340.739 140.7C340.739 141.447 340.892 142.107 341.199 142.68C341.519 143.24 341.945 143.673 342.479 143.98C343.025 144.287 343.632 144.44 344.299 144.44ZM357.132 146.12C356.225 146.12 355.425 145.953 354.732 145.62C354.052 145.287 353.518 144.78 353.132 144.1C352.758 143.407 352.572 142.54 352.572 141.5V135.4H354.492V141.28C354.492 142.32 354.738 143.1 355.232 143.62C355.738 144.14 356.445 144.4 357.352 144.4C358.018 144.4 358.598 144.267 359.092 144C359.585 143.72 359.965 143.32 360.232 142.8C360.498 142.267 360.632 141.627 360.632 140.88V135.4H362.552V146H360.732V143.14L361.032 143.9C360.685 144.607 360.165 145.153 359.472 145.54C358.778 145.927 357.998 146.12 357.132 146.12ZM366.407 146V131.16H368.327V146H366.407ZM378.773 146V143.76L378.673 143.34V139.52C378.673 138.707 378.433 138.08 377.953 137.64C377.486 137.187 376.779 136.96 375.833 136.96C375.206 136.96 374.593 137.067 373.993 137.28C373.393 137.48 372.886 137.753 372.473 138.1L371.673 136.66C372.219 136.22 372.873 135.887 373.633 135.66C374.406 135.42 375.213 135.3 376.053 135.3C377.506 135.3 378.626 135.653 379.413 136.36C380.199 137.067 380.593 138.147 380.593 139.6V146H378.773ZM375.293 146.12C374.506 146.12 373.813 145.987 373.213 145.72C372.626 145.453 372.173 145.087 371.853 144.62C371.533 144.14 371.373 143.6 371.373 143C371.373 142.427 371.506 141.907 371.773 141.44C372.053 140.973 372.499 140.6 373.113 140.32C373.739 140.04 374.579 139.9 375.633 139.9H378.993V141.28H375.713C374.753 141.28 374.106 141.44 373.773 141.76C373.439 142.08 373.273 142.467 373.273 142.92C373.273 143.44 373.479 143.86 373.893 144.18C374.306 144.487 374.879 144.64 375.613 144.64C376.333 144.64 376.959 144.48 377.493 144.16C378.039 143.84 378.433 143.373 378.673 142.76L379.053 144.08C378.799 144.707 378.353 145.207 377.713 145.58C377.073 145.94 376.266 146.12 375.293 146.12ZM384.346 146V135.4H386.186V138.28L386.006 137.56C386.299 136.827 386.792 136.267 387.486 135.88C388.179 135.493 389.032 135.3 390.046 135.3V137.16C389.966 137.147 389.886 137.14 389.806 137.14C389.739 137.14 389.672 137.14 389.606 137.14C388.579 137.14 387.766 137.447 387.166 138.06C386.566 138.673 386.266 139.56 386.266 140.72V146H384.346ZM393.502 150C392.995 150 392.502 149.913 392.022 149.74C391.542 149.58 391.129 149.34 390.782 149.02L391.602 147.58C391.869 147.833 392.162 148.027 392.482 148.16C392.802 148.293 393.142 148.36 393.502 148.36C393.969 148.36 394.355 148.24 394.662 148C394.969 147.76 395.255 147.333 395.522 146.72L396.182 145.26L396.382 145.02L400.542 135.4H402.422L397.282 147.06C396.975 147.807 396.629 148.393 396.242 148.82C395.869 149.247 395.455 149.547 395.002 149.72C394.549 149.907 394.049 150 393.502 150ZM396.022 146.34L391.182 135.4H393.182L397.302 144.84L396.022 146.34ZM409.985 146V131.16H411.905V146H409.985ZM420.491 146.12C419.357 146.12 418.357 145.887 417.491 145.42C416.637 144.953 415.971 144.313 415.491 143.5C415.024 142.687 414.791 141.753 414.791 140.7C414.791 139.647 415.017 138.713 415.471 137.9C415.937 137.087 416.571 136.453 417.371 136C418.184 135.533 419.097 135.3 420.111 135.3C421.137 135.3 422.044 135.527 422.831 135.98C423.617 136.433 424.231 137.073 424.671 137.9C425.124 138.713 425.351 139.667 425.351 140.76C425.351 140.84 425.344 140.933 425.331 141.04C425.331 141.147 425.324 141.247 425.311 141.34H416.291V139.96H424.311L423.531 140.44C423.544 139.76 423.404 139.153 423.111 138.62C422.817 138.087 422.411 137.673 421.891 137.38C421.384 137.073 420.791 136.92 420.111 136.92C419.444 136.92 418.851 137.073 418.331 137.38C417.811 137.673 417.404 138.093 417.111 138.64C416.817 139.173 416.671 139.787 416.671 140.48V140.8C416.671 141.507 416.831 142.14 417.151 142.7C417.484 143.247 417.944 143.673 418.531 143.98C419.117 144.287 419.791 144.44 420.551 144.44C421.177 144.44 421.744 144.333 422.251 144.12C422.771 143.907 423.224 143.587 423.611 143.16L424.671 144.4C424.191 144.96 423.591 145.387 422.871 145.68C422.164 145.973 421.371 146.12 420.491 146.12ZM434.504 146V143.76L434.404 143.34V139.52C434.404 138.707 434.164 138.08 433.684 137.64C433.217 137.187 432.511 136.96 431.564 136.96C430.937 136.96 430.324 137.067 429.724 137.28C429.124 137.48 428.617 137.753 428.204 138.1L427.404 136.66C427.951 136.22 428.604 135.887 429.364 135.66C430.137 135.42 430.944 135.3 431.784 135.3C433.237 135.3 434.357 135.653 435.144 136.36C435.931 137.067 436.324 138.147 436.324 139.6V146H434.504ZM431.024 146.12C430.237 146.12 429.544 145.987 428.944 145.72C428.357 145.453 427.904 145.087 427.584 144.62C427.264 144.14 427.104 143.6 427.104 143C427.104 142.427 427.237 141.907 427.504 141.44C427.784 140.973 428.231 140.6 428.844 140.32C429.471 140.04 430.311 139.9 431.364 139.9H434.724V141.28H431.444C430.484 141.28 429.837 141.44 429.504 141.76C429.171 142.08 429.004 142.467 429.004 142.92C429.004 143.44 429.211 143.86 429.624 144.18C430.037 144.487 430.611 144.64 431.344 144.64C432.064 144.64 432.691 144.48 433.224 144.16C433.771 143.84 434.164 143.373 434.404 142.76L434.784 144.08C434.531 144.707 434.084 145.207 433.444 145.58C432.804 145.94 431.997 146.12 431.024 146.12ZM440.077 146V135.4H441.917V138.28L441.737 137.56C442.03 136.827 442.524 136.267 443.217 135.88C443.91 135.493 444.764 135.3 445.777 135.3V137.16C445.697 137.147 445.617 137.14 445.537 137.14C445.47 137.14 445.404 137.14 445.337 137.14C444.31 137.14 443.497 137.447 442.897 138.06C442.297 138.673 441.997 139.56 441.997 140.72V146H440.077ZM454.003 135.3C454.87 135.3 455.63 135.467 456.283 135.8C456.95 136.133 457.47 136.64 457.843 137.32C458.217 138 458.403 138.86 458.403 139.9V146H456.483V140.12C456.483 139.093 456.23 138.32 455.723 137.8C455.23 137.28 454.53 137.02 453.623 137.02C452.943 137.02 452.35 137.153 451.843 137.42C451.337 137.687 450.943 138.08 450.663 138.6C450.397 139.12 450.263 139.767 450.263 140.54V146H448.343V135.4H450.183V138.26L449.883 137.5C450.23 136.807 450.763 136.267 451.483 135.88C452.203 135.493 453.043 135.3 454.003 135.3ZM462.157 146V135.4H464.077V146H462.157ZM463.117 133.36C462.743 133.36 462.43 133.24 462.177 133C461.937 132.76 461.817 132.467 461.817 132.12C461.817 131.76 461.937 131.46 462.177 131.22C462.43 130.98 462.743 130.86 463.117 130.86C463.49 130.86 463.797 130.98 464.037 131.22C464.29 131.447 464.417 131.733 464.417 132.08C464.417 132.44 464.297 132.747 464.057 133C463.817 133.24 463.503 133.36 463.117 133.36ZM473.603 135.3C474.469 135.3 475.229 135.467 475.883 135.8C476.549 136.133 477.069 136.64 477.443 137.32C477.816 138 478.003 138.86 478.003 139.9V146H476.083V140.12C476.083 139.093 475.829 138.32 475.323 137.8C474.829 137.28 474.129 137.02 473.223 137.02C472.543 137.02 471.949 137.153 471.443 137.42C470.936 137.687 470.543 138.08 470.263 138.6C469.996 139.12 469.863 139.767 469.863 140.54V146H467.943V135.4H469.783V138.26L469.483 137.5C469.829 136.807 470.363 136.267 471.083 135.88C471.803 135.493 472.643 135.3 473.603 135.3ZM486.396 150C485.423 150 484.476 149.86 483.556 149.58C482.649 149.313 481.909 148.927 481.336 148.42L482.256 146.94C482.749 147.367 483.356 147.7 484.076 147.94C484.796 148.193 485.549 148.32 486.336 148.32C487.589 148.32 488.509 148.027 489.096 147.44C489.683 146.853 489.976 145.96 489.976 144.76V142.52L490.176 140.42L490.076 138.3V135.4H491.896V144.56C491.896 146.427 491.429 147.8 490.496 148.68C489.563 149.56 488.196 150 486.396 150ZM486.156 145.56C485.129 145.56 484.209 145.347 483.396 144.92C482.596 144.48 481.956 143.873 481.476 143.1C481.009 142.327 480.776 141.433 480.776 140.42C480.776 139.393 481.009 138.5 481.476 137.74C481.956 136.967 482.596 136.367 483.396 135.94C484.209 135.513 485.129 135.3 486.156 135.3C487.063 135.3 487.889 135.487 488.636 135.86C489.383 136.22 489.976 136.78 490.416 137.54C490.869 138.3 491.096 139.26 491.096 140.42C491.096 141.567 490.869 142.52 490.416 143.28C489.976 144.04 489.383 144.613 488.636 145C487.889 145.373 487.063 145.56 486.156 145.56ZM486.376 143.88C487.083 143.88 487.709 143.733 488.256 143.44C488.803 143.147 489.229 142.74 489.536 142.22C489.856 141.7 490.016 141.1 490.016 140.42C490.016 139.74 489.856 139.14 489.536 138.62C489.229 138.1 488.803 137.7 488.256 137.42C487.709 137.127 487.083 136.98 486.376 136.98C485.669 136.98 485.036 137.127 484.476 137.42C483.929 137.7 483.496 138.1 483.176 138.62C482.869 139.14 482.716 139.74 482.716 140.42C482.716 141.1 482.869 141.7 483.176 142.22C483.496 142.74 483.929 143.147 484.476 143.44C485.036 143.733 485.669 143.88 486.376 143.88ZM506.956 146.12C506.076 146.12 505.269 145.92 504.536 145.52C503.816 145.107 503.236 144.5 502.796 143.7C502.369 142.9 502.156 141.9 502.156 140.7C502.156 139.5 502.362 138.5 502.776 137.7C503.202 136.9 503.776 136.3 504.496 135.9C505.229 135.5 506.049 135.3 506.956 135.3C507.996 135.3 508.916 135.527 509.716 135.98C510.516 136.433 511.149 137.067 511.616 137.88C512.082 138.68 512.316 139.62 512.316 140.7C512.316 141.78 512.082 142.727 511.616 143.54C511.149 144.353 510.516 144.987 509.716 145.44C508.916 145.893 507.996 146.12 506.956 146.12ZM501.336 149.88V135.4H503.176V138.26L503.056 140.72L503.256 143.18V149.88H501.336ZM506.796 144.44C507.476 144.44 508.082 144.287 508.616 143.98C509.162 143.673 509.589 143.24 509.896 142.68C510.216 142.107 510.376 141.447 510.376 140.7C510.376 139.94 510.216 139.287 509.896 138.74C509.589 138.18 509.162 137.747 508.616 137.44C508.082 137.133 507.476 136.98 506.796 136.98C506.129 136.98 505.522 137.133 504.976 137.44C504.442 137.747 504.016 138.18 503.696 138.74C503.389 139.287 503.236 139.94 503.236 140.7C503.236 141.447 503.389 142.107 503.696 142.68C504.016 143.24 504.442 143.673 504.976 143.98C505.522 144.287 506.129 144.44 506.796 144.44ZM515.168 146V131.16H517.088V146H515.168ZM527.534 146V143.76L527.434 143.34V139.52C527.434 138.707 527.194 138.08 526.714 137.64C526.248 137.187 525.541 136.96 524.594 136.96C523.968 136.96 523.354 137.067 522.754 137.28C522.154 137.48 521.648 137.753 521.234 138.1L520.434 136.66C520.981 136.22 521.634 135.887 522.394 135.66C523.168 135.42 523.974 135.3 524.814 135.3C526.268 135.3 527.388 135.653 528.174 136.36C528.961 137.067 529.354 138.147 529.354 139.6V146H527.534ZM524.054 146.12C523.268 146.12 522.574 145.987 521.974 145.72C521.388 145.453 520.934 145.087 520.614 144.62C520.294 144.14 520.134 143.6 520.134 143C520.134 142.427 520.268 141.907 520.534 141.44C520.814 140.973 521.261 140.6 521.874 140.32C522.501 140.04 523.341 139.9 524.394 139.9H527.754V141.28H524.474C523.514 141.28 522.868 141.44 522.534 141.76C522.201 142.08 522.034 142.467 522.034 142.92C522.034 143.44 522.241 143.86 522.654 144.18C523.068 144.487 523.641 144.64 524.374 144.64C525.094 144.64 525.721 144.48 526.254 144.16C526.801 143.84 527.194 143.373 527.434 142.76L527.814 144.08C527.561 144.707 527.114 145.207 526.474 145.58C525.834 145.94 525.028 146.12 524.054 146.12ZM536.748 146.12C535.681 146.12 534.854 145.833 534.268 145.26C533.681 144.687 533.388 143.867 533.388 142.8V133.08H535.308V142.72C535.308 143.293 535.448 143.733 535.728 144.04C536.021 144.347 536.434 144.5 536.968 144.5C537.568 144.5 538.068 144.333 538.468 144L539.068 145.38C538.774 145.633 538.421 145.82 538.008 145.94C537.608 146.06 537.188 146.12 536.748 146.12ZM531.588 136.98V135.4H538.348V136.98H531.588ZM541.869 146V134.46C541.869 133.42 542.169 132.593 542.769 131.98C543.382 131.353 544.249 131.04 545.369 131.04C545.782 131.04 546.175 131.093 546.549 131.2C546.935 131.293 547.262 131.447 547.529 131.66L546.949 133.12C546.749 132.96 546.522 132.84 546.269 132.76C546.015 132.667 545.749 132.62 545.469 132.62C544.909 132.62 544.482 132.78 544.189 133.1C543.895 133.407 543.749 133.867 543.749 134.48V135.9L543.789 136.78V146H541.869ZM540.069 136.98V135.4H546.829V136.98H540.069ZM553.223 146.12C552.157 146.12 551.21 145.887 550.383 145.42C549.557 144.953 548.903 144.313 548.423 143.5C547.943 142.673 547.703 141.74 547.703 140.7C547.703 139.647 547.943 138.713 548.423 137.9C548.903 137.087 549.557 136.453 550.383 136C551.21 135.533 552.157 135.3 553.223 135.3C554.277 135.3 555.217 135.533 556.043 136C556.883 136.453 557.537 137.087 558.003 137.9C558.483 138.7 558.723 139.633 558.723 140.7C558.723 141.753 558.483 142.687 558.003 143.5C557.537 144.313 556.883 144.953 556.043 145.42C555.217 145.887 554.277 146.12 553.223 146.12ZM553.223 144.44C553.903 144.44 554.51 144.287 555.043 143.98C555.59 143.673 556.017 143.24 556.323 142.68C556.63 142.107 556.783 141.447 556.783 140.7C556.783 139.94 556.63 139.287 556.323 138.74C556.017 138.18 555.59 137.747 555.043 137.44C554.51 137.133 553.903 136.98 553.223 136.98C552.543 136.98 551.937 137.133 551.403 137.44C550.87 137.747 550.443 138.18 550.123 138.74C549.803 139.287 549.643 139.94 549.643 140.7C549.643 141.447 549.803 142.107 550.123 142.68C550.443 143.24 550.87 143.673 551.403 143.98C551.937 144.287 552.543 144.44 553.223 144.44ZM561.579 146V135.4H563.419V138.28L563.239 137.56C563.532 136.827 564.025 136.267 564.719 135.88C565.412 135.493 566.265 135.3 567.279 135.3V137.16C567.199 137.147 567.119 137.14 567.039 137.14C566.972 137.14 566.905 137.14 566.839 137.14C565.812 137.14 564.999 137.447 564.399 138.06C563.799 138.673 563.499 139.56 563.499 140.72V146H561.579ZM583.105 135.3C583.958 135.3 584.712 135.467 585.365 135.8C586.018 136.133 586.525 136.64 586.885 137.32C587.258 138 587.445 138.86 587.445 139.9V146H585.525V140.12C585.525 139.093 585.285 138.32 584.805 137.8C584.325 137.28 583.652 137.02 582.785 137.02C582.145 137.02 581.585 137.153 581.105 137.42C580.625 137.687 580.252 138.08 579.985 138.6C579.732 139.12 579.605 139.767 579.605 140.54V146H577.685V140.12C577.685 139.093 577.445 138.32 576.965 137.8C576.498 137.28 575.825 137.02 574.945 137.02C574.318 137.02 573.765 137.153 573.285 137.42C572.805 137.687 572.432 138.08 572.165 138.6C571.898 139.12 571.765 139.767 571.765 140.54V146H569.845V135.4H571.685V138.22L571.385 137.5C571.718 136.807 572.232 136.267 572.925 135.88C573.618 135.493 574.425 135.3 575.345 135.3C576.358 135.3 577.232 135.553 577.965 136.06C578.698 136.553 579.178 137.307 579.405 138.32L578.625 138C578.945 137.187 579.505 136.533 580.305 136.04C581.105 135.547 582.038 135.3 583.105 135.3ZM591.638 146.12C591.264 146.12 590.944 145.993 590.678 145.74C590.411 145.473 590.278 145.14 590.278 144.74C590.278 144.34 590.411 144.013 590.678 143.76C590.944 143.507 591.264 143.38 591.638 143.38C591.998 143.38 592.304 143.507 592.558 143.76C592.824 144.013 592.958 144.34 592.958 144.74C592.958 145.14 592.824 145.473 592.558 145.74C592.304 145.993 591.998 146.12 591.638 146.12Z" fill="white"/>
<ellipse cx="168.449" cy="99.833" rx="64.4486" ry="62.0633" fill="white"/>
<ellipse cx="168.449" cy="99.833" rx="43.3563" ry="41.7517" fill="black"/>
<circle cx="154.5" cy="103.5" r="53" stroke="black" stroke-width="11"/>
</g>
</g>
<defs>
<filter id="filter0_d_3_2" x="0" y="0" width="732" height="208" filterUnits="userSpaceOnUse" color-interpolation-filters="sRGB">
<feFlood flood-opacity="0" result="BackgroundImageFix"/>
<feColorMatrix in="SourceAlpha" type="matrix" values="0 0 0 0 0 0 0 0 0 0 0 0 0 0 0 0 0 0 127 0" result="hardAlpha"/>
<feOffset dy="4"/>
<feGaussianBlur stdDeviation="2"/>
<feComposite in2="hardAlpha" operator="out"/>
<feColorMatrix type="matrix" values="0 0 0 0 0 0 0 0 0 0 0 0 0 0 0 0 0 0 0.25 0"/>
<feBlend mode="normal" in2="BackgroundImageFix" result="effect1_dropShadow_3_2"/>
<feBlend mode="normal" in="SourceGraphic" in2="effect1_dropShadow_3_2" result="shape"/>
</filter>
<clipPath id="clip0_3_2">
<rect x="4" width="724" height="200" rx="21" fill="white"/>
</clipPath>
</defs>
</svg>
